<?xml version="1.0"?>
<svg xmlns="http://www.w3.org/2000/svg" xmlns:xlink="http://www.w3.org/1999/xlink" version="1.1" id="Capa_1" x="0px" y="0px" viewBox="0 0 496 496" style="enable-background:new 0 0 496 496;" xml:space="preserve" width="512px" height="512px" class=""><g><path style="fill:#ECECEC;" d="M248,488c132.552,0,240-107.448,240-240H248V488z" data-original="#ECECEC" class=""/><path style="fill:#AFD8F2" d="M8,248c0,132.552,107.448,240,240,240V248H8z" data-original="#FFEAA7" class="active-path" data-old_color="#FFEAA7"/><path style="fill:#ECECEC;" d="M248,8C115.448,8,8,115.448,8,248h240V8z" data-original="#ECECEC" class=""/><g>
	<circle style="fill:#1F3541" cx="184" cy="376" r="16" data-original="#FB5968" class="" data-old_color="#FB5968"/>
	<circle style="fill:#1F3541" cx="120" cy="312" r="16" data-original="#FB5968" class="" data-old_color="#FB5968"/>
	<path style="fill:#1F3541" d="M488,248C488,115.448,380.552,8,248,8v240H488z" data-original="#FB5968" class="" data-old_color="#FB5968"/>
</g><g>
	<rect x="56" y="8" style="fill:#FEA82F;" width="32" height="192" data-original="#FEA82F"/>
	<rect x="88" y="40" style="fill:#FEA82F;" width="32" height="160" data-original="#FEA82F"/>
	<rect x="120" y="72" style="fill:#FEA82F;" width="32" height="128" data-original="#FEA82F"/>
	<rect x="152" y="104" style="fill:#FEA82F;" width="32" height="96" data-original="#FEA82F"/>
	<rect x="184" y="136" style="fill:#FEA82F;" width="32" height="64" data-original="#FEA82F"/>
</g><path style="fill:#B6C1CE;" d="M479.768,310.352C457.864,286.816,426.696,272,392,272c-66.272,0-120,53.728-120,120  c0,34.696,14.816,65.864,38.36,87.768C392.776,457.648,457.648,392.776,479.768,310.352z" data-original="#B6C1CE"/><circle style="fill:#FEA82F;" cx="392" cy="392" r="96" data-original="#FEA82F"/><g>
	<path style="fill:#FF8031;" d="M392,472c-50.32,0-91.52-38.736-95.6-88c-0.216,2.648-0.4,5.296-0.4,8c0,53.016,42.984,96,96,96   s96-42.984,96-96c0-2.704-0.184-5.352-0.4-8C483.52,433.264,442.32,472,392,472z" data-original="#FF8031" class=""/>
	<rect x="56" y="176" style="fill:#FF8031;" width="160" height="24" data-original="#FF8031" class=""/>
</g><path d="M496,248C496,111.256,384.744,0,248,0c-42.872,0-84.64,11.104-121.672,32H96V0H48v101.496C16.64,144.216,0,194.776,0,248  c0,136.752,111.256,248,248,248c30.472,0,60.216-5.48,88.416-16.248C352.512,489.984,371.552,496,392,496  c24.944,0,49.072-8.968,67.936-25.248L449.48,458.64C433.52,472.416,413.112,480,392,480c-48.52,0-88-39.48-88-88s39.48-88,88-88  s88,39.48,88,88c0,20.28-6.704,39.344-19.4,55.128l12.472,10.032C487.856,438.768,496,415.632,496,392  c0-20.464-6.024-39.504-16.264-55.608C490.496,308.184,496,278.472,496,248z M479.8,240h-68.488l58.832-58.832  C475.792,199.896,479.104,219.616,479.8,240z M439.488,117.2l-89.352,89.352l11.312,11.312l86.8-86.8  c6.208,10.592,11.592,21.712,16.088,33.288L388.688,240h-49.376l10.344-10.344l-11.312-11.312L316.688,240h-49.376L417.496,89.816  C425.48,98.376,432.848,107.512,439.488,117.2z M363.36,71.952l15.44-15.44c9.688,6.64,18.824,14,27.384,21.992L256,228.688v-49.376  l97.224-97.224l-11.312-11.312L256,156.688v-49.376l75.648-75.648c11.576,4.488,22.696,9.872,33.288,16.088L352.048,60.64  L363.36,71.952z M256,84.688V16.2c20.384,0.696,40.104,4.008,58.832,9.656L256,84.688z M192,144h16v48h-16V144z M176,128v64h-16v-80  h16V128z M144,96v96h-16V80h16V96z M112,48v16v128H96V48H112z M64,16h16v16v160H64V16z M80,208h16h16h16h16h16h16h16h32v-80h-32V96  h-32V64h-32V49.536c33.848-20.512,72.312-31.896,112-33.256V240H16.32c1.304-38.944,12.12-76.16,31.68-109.336V208H80z M16.2,256  H240v223.8C118.432,475.648,20.352,377.568,16.2,256z M392,288c-57.344,0-104,46.656-104,104c0,30.088,12.92,57.144,33.408,76.152  c-21.08,7.032-43.008,10.912-65.408,11.664V256h223.816c-0.752,22.392-4.664,44.304-11.688,65.384  C449.12,300.904,422.072,288,392,288z" data-original="#000000" class=""/><rect x="84.155" y="336" transform="matrix(-0.7071 0.7071 -0.7071 -0.7071 502.7901 479.7383)" width="135.767" height="16" data-original="#000000" class=""/><path d="M184,352c-13.232,0-24,10.768-24,24s10.768,24,24,24s24-10.768,24-24S197.232,352,184,352z M184,384c-4.408,0-8-3.584-8-8  s3.592-8,8-8s8,3.584,8,8S188.408,384,184,384z" data-original="#000000" class=""/><path d="M120,336c13.232,0,24-10.768,24-24s-10.768-24-24-24s-24,10.768-24,24S106.768,336,120,336z M120,304c4.408,0,8,3.584,8,8  s-3.592,8-8,8s-8-3.584-8-8S115.592,304,120,304z" data-original="#000000" class=""/><path d="M392,352c8.824,0,16,7.176,16,16h16c0-14.872-10.24-27.288-24-30.864V320h-16v17.136c-13.76,3.576-24,15.992-24,30.864  c0,17.648,14.352,32,32,32c8.824,0,16,7.176,16,16s-7.176,16-16,16s-16-7.176-16-16h-16c0,14.872,10.24,27.288,24,30.864V464h16  v-17.136c13.76-3.576,24-15.992,24-30.864c0-17.648-14.352-32-32-32c-8.824,0-16-7.176-16-16S383.176,352,392,352z" data-original="#000000" class=""/><rect x="448" y="384" width="16" height="16" data-original="#000000" class=""/><rect x="320" y="384" width="16" height="16" data-original="#000000" class=""/></g> </svg>
