<?xml version="1.0"?>
<svg xmlns="http://www.w3.org/2000/svg" xmlns:xlink="http://www.w3.org/1999/xlink" version="1.1" id="Capa_1" x="0px" y="0px" width="512px" height="512px" viewBox="0 0 98.023 98.023" style="enable-background:new 0 0 98.023 98.023;" xml:space="preserve"><g><g>
	<g>
		<path d="M49.011,8.689c-9.983,0-18.541,6.61-22.158,16.012h44.315C67.553,15.3,58.994,8.689,49.011,8.689z" data-original="#000000" class="active-path" data-old_color="#000000" fill="#5289B5"/>
		<path d="M93.357,48.938H79.496c0.773-3.128,1.237-6.423,1.348-9.83c4.94-2.967,10.617-8.168,12.028-16.795    c0.416-2.544-1.31-4.942-3.853-5.357c-2.545-0.414-4.939,1.31-5.356,3.851c-0.759,4.64-3.723,7.724-6.633,9.696H21.009    c-2.915-1.974-5.892-5.058-6.65-9.696c-0.416-2.542-2.808-4.265-5.357-3.851c-2.543,0.416-4.268,2.813-3.852,5.357    c1.411,8.626,7.087,13.828,12.028,16.795c0.111,3.407,0.574,6.702,1.348,9.83H4.665C2.089,48.938,0,51.027,0,53.604    c0,2.577,2.089,4.666,4.665,4.666h17.322c1.311,2.577,2.855,4.955,4.602,7.083c-6.1,4.571-11.813,12.548-14.584,16.745    c-1.42,2.148-0.829,5.042,1.32,6.463c0.792,0.523,1.686,0.773,2.568,0.773c1.514,0,2.999-0.735,3.897-2.092    c4.624-6.99,10.586-13.596,13.746-15.472c3.796,2.601,8.073,4.261,12.622,4.759V41.297h5.708v35.232    c4.543-0.498,8.813-2.153,12.608-4.748c3.195,1.89,9.146,8.483,13.76,15.461c0.898,1.356,2.383,2.092,3.896,2.092    c0.883,0,1.776-0.25,2.568-0.773c2.148-1.42,2.74-4.312,1.32-6.463c-2.774-4.2-8.473-12.184-14.579-16.751    c1.745-2.127,3.286-4.503,4.596-7.077h17.322c2.575,0,4.665-2.089,4.665-4.666C98.022,51.027,95.934,48.938,93.357,48.938z" data-original="#000000" class="active-path" data-old_color="#000000" fill="#5289B5"/>
	</g>
</g></g> </svg>
